G75*
G70*
%OFA0B0*%
%FSLAX24Y24*%
%IPPOS*%
%LPD*%
%AMOC8*
5,1,8,0,0,1.08239X$1,22.5*
%
%ADD10C,0.0000*%
%ADD11C,0.0500*%
%ADD12C,0.1500*%
D10*
X010744Y004685D02*
X010746Y004747D01*
X010752Y004810D01*
X010762Y004871D01*
X010776Y004932D01*
X010793Y004992D01*
X010814Y005051D01*
X010840Y005108D01*
X010868Y005163D01*
X010900Y005217D01*
X010936Y005268D01*
X010974Y005318D01*
X011016Y005364D01*
X011060Y005408D01*
X011108Y005449D01*
X011157Y005487D01*
X011209Y005521D01*
X011263Y005552D01*
X011319Y005580D01*
X011377Y005604D01*
X011436Y005625D01*
X011496Y005641D01*
X011557Y005654D01*
X011619Y005663D01*
X011681Y005668D01*
X011744Y005669D01*
X011806Y005666D01*
X011868Y005659D01*
X011930Y005648D01*
X011990Y005633D01*
X012050Y005615D01*
X012108Y005593D01*
X012165Y005567D01*
X012220Y005537D01*
X012273Y005504D01*
X012324Y005468D01*
X012372Y005429D01*
X012418Y005386D01*
X012461Y005341D01*
X012501Y005293D01*
X012538Y005243D01*
X012572Y005190D01*
X012603Y005136D01*
X012629Y005080D01*
X012653Y005022D01*
X012672Y004962D01*
X012688Y004902D01*
X012700Y004840D01*
X012708Y004779D01*
X012712Y004716D01*
X012712Y004654D01*
X012708Y004591D01*
X012700Y004530D01*
X012688Y004468D01*
X012672Y004408D01*
X012653Y004348D01*
X012629Y004290D01*
X012603Y004234D01*
X012572Y004180D01*
X012538Y004127D01*
X012501Y004077D01*
X012461Y004029D01*
X012418Y003984D01*
X012372Y003941D01*
X012324Y003902D01*
X012273Y003866D01*
X012220Y003833D01*
X012165Y003803D01*
X012108Y003777D01*
X012050Y003755D01*
X011990Y003737D01*
X011930Y003722D01*
X011868Y003711D01*
X011806Y003704D01*
X011744Y003701D01*
X011681Y003702D01*
X011619Y003707D01*
X011557Y003716D01*
X011496Y003729D01*
X011436Y003745D01*
X011377Y003766D01*
X011319Y003790D01*
X011263Y003818D01*
X011209Y003849D01*
X011157Y003883D01*
X011108Y003921D01*
X011060Y003962D01*
X011016Y004006D01*
X010974Y004052D01*
X010936Y004102D01*
X010900Y004153D01*
X010868Y004207D01*
X010840Y004262D01*
X010814Y004319D01*
X010793Y004378D01*
X010776Y004438D01*
X010762Y004499D01*
X010752Y004560D01*
X010746Y004623D01*
X010744Y004685D01*
X010744Y012677D02*
X010746Y012739D01*
X010752Y012802D01*
X010762Y012863D01*
X010776Y012924D01*
X010793Y012984D01*
X010814Y013043D01*
X010840Y013100D01*
X010868Y013155D01*
X010900Y013209D01*
X010936Y013260D01*
X010974Y013310D01*
X011016Y013356D01*
X011060Y013400D01*
X011108Y013441D01*
X011157Y013479D01*
X011209Y013513D01*
X011263Y013544D01*
X011319Y013572D01*
X011377Y013596D01*
X011436Y013617D01*
X011496Y013633D01*
X011557Y013646D01*
X011619Y013655D01*
X011681Y013660D01*
X011744Y013661D01*
X011806Y013658D01*
X011868Y013651D01*
X011930Y013640D01*
X011990Y013625D01*
X012050Y013607D01*
X012108Y013585D01*
X012165Y013559D01*
X012220Y013529D01*
X012273Y013496D01*
X012324Y013460D01*
X012372Y013421D01*
X012418Y013378D01*
X012461Y013333D01*
X012501Y013285D01*
X012538Y013235D01*
X012572Y013182D01*
X012603Y013128D01*
X012629Y013072D01*
X012653Y013014D01*
X012672Y012954D01*
X012688Y012894D01*
X012700Y012832D01*
X012708Y012771D01*
X012712Y012708D01*
X012712Y012646D01*
X012708Y012583D01*
X012700Y012522D01*
X012688Y012460D01*
X012672Y012400D01*
X012653Y012340D01*
X012629Y012282D01*
X012603Y012226D01*
X012572Y012172D01*
X012538Y012119D01*
X012501Y012069D01*
X012461Y012021D01*
X012418Y011976D01*
X012372Y011933D01*
X012324Y011894D01*
X012273Y011858D01*
X012220Y011825D01*
X012165Y011795D01*
X012108Y011769D01*
X012050Y011747D01*
X011990Y011729D01*
X011930Y011714D01*
X011868Y011703D01*
X011806Y011696D01*
X011744Y011693D01*
X011681Y011694D01*
X011619Y011699D01*
X011557Y011708D01*
X011496Y011721D01*
X011436Y011737D01*
X011377Y011758D01*
X011319Y011782D01*
X011263Y011810D01*
X011209Y011841D01*
X011157Y011875D01*
X011108Y011913D01*
X011060Y011954D01*
X011016Y011998D01*
X010974Y012044D01*
X010936Y012094D01*
X010900Y012145D01*
X010868Y012199D01*
X010840Y012254D01*
X010814Y012311D01*
X010793Y012370D01*
X010776Y012430D01*
X010762Y012491D01*
X010752Y012552D01*
X010746Y012615D01*
X010744Y012677D01*
D11*
X013067Y008700D02*
X000350Y008700D01*
D12*
X013976Y001350D02*
X013976Y016350D01*
M02*
