G75*
G70*
%OFA0B0*%
%FSLAX24Y24*%
%IPPOS*%
%LPD*%
%AMOC8*
5,1,8,0,0,1.08239X$1,22.5*
%
%ADD10C,0.2049*%
%ADD11C,0.0110*%
%ADD12C,0.2620*%
%ADD13C,0.0740*%
%ADD14C,0.2520*%
D10*
X011728Y004685D03*
X011728Y012677D03*
D11*
X003270Y001796D02*
X003270Y001205D01*
X003172Y001500D02*
X003566Y001500D01*
X003270Y001796D01*
X003816Y001205D02*
X004210Y001205D01*
X004013Y001205D02*
X004013Y001796D01*
X004210Y001599D01*
X005088Y001500D02*
X005284Y001500D01*
X005186Y001697D02*
X005186Y001205D01*
X005517Y001500D02*
X005714Y001500D01*
X005616Y001697D02*
X005616Y001205D01*
X005965Y001303D02*
X005965Y001500D01*
X006063Y001599D01*
X006260Y001599D01*
X006359Y001500D01*
X006359Y001303D01*
X006260Y001205D01*
X006063Y001205D01*
X005965Y001303D01*
X005616Y001697D02*
X005517Y001796D01*
X005186Y001697D02*
X005088Y001796D01*
X006609Y001500D02*
X006609Y001205D01*
X006609Y001500D02*
X006708Y001599D01*
X006905Y001599D01*
X007003Y001500D01*
X007003Y001205D02*
X007003Y001796D01*
X007254Y001599D02*
X007549Y001599D01*
X007648Y001500D01*
X007648Y001303D01*
X007549Y001205D01*
X007254Y001205D01*
X007899Y001205D02*
X007899Y001500D01*
X007997Y001599D01*
X008292Y001599D01*
X008292Y001205D01*
X008543Y001402D02*
X008937Y001402D01*
X008937Y001500D02*
X008838Y001599D01*
X008642Y001599D01*
X008543Y001500D01*
X008543Y001402D01*
X008642Y001205D02*
X008838Y001205D01*
X008937Y001303D01*
X008937Y001500D01*
X009188Y001402D02*
X009188Y001303D01*
X009286Y001205D01*
X009581Y001205D01*
X009581Y001796D01*
X009286Y001796D01*
X009188Y001697D01*
X009188Y001599D01*
X009286Y001500D01*
X009581Y001500D01*
X009286Y001500D02*
X009188Y001402D01*
X004138Y014708D02*
X004040Y014708D01*
X003941Y014807D01*
X003941Y015299D01*
X004236Y015299D01*
X004335Y015200D01*
X004335Y015003D01*
X004236Y014905D01*
X003941Y014905D01*
X003690Y014905D02*
X003690Y015299D01*
X003494Y015299D02*
X003690Y015102D01*
X003494Y015299D02*
X003395Y015299D01*
X003153Y015003D02*
X003055Y015102D01*
X002760Y015102D01*
X002760Y015200D02*
X002760Y014905D01*
X003055Y014905D01*
X003153Y015003D01*
X003055Y015299D02*
X002858Y015299D01*
X002760Y015200D01*
X002509Y015299D02*
X002213Y015299D01*
X002115Y015200D01*
X002115Y015003D01*
X002213Y014905D01*
X002509Y014905D01*
X002509Y014708D02*
X002509Y015299D01*
X001864Y015200D02*
X001766Y015299D01*
X001569Y015299D01*
X001470Y015200D01*
X001470Y014905D01*
X001864Y014905D02*
X001864Y015496D01*
X004586Y015200D02*
X004586Y015003D01*
X004684Y014905D01*
X004881Y014905D01*
X004979Y015003D01*
X004979Y015200D01*
X004881Y015299D01*
X004684Y015299D01*
X004586Y015200D01*
X005212Y015299D02*
X005409Y015299D01*
X005311Y015397D02*
X005311Y015003D01*
X005212Y014905D01*
X005660Y014905D02*
X005660Y015200D01*
X005758Y015299D01*
X006054Y015299D01*
X006054Y014905D01*
X006305Y014905D02*
X006305Y015200D01*
X006403Y015299D01*
X006600Y015299D01*
X006600Y015102D02*
X006305Y015102D01*
X006305Y014905D02*
X006600Y014905D01*
X006698Y015003D01*
X006600Y015102D01*
X006949Y015200D02*
X006949Y015397D01*
X007048Y015496D01*
X007343Y015496D01*
X007343Y014905D01*
X007343Y015102D02*
X007048Y015102D01*
X006949Y015200D01*
X008238Y015003D02*
X008337Y014905D01*
X008533Y014905D01*
X008632Y015003D01*
X008632Y015397D01*
X008533Y015496D01*
X008337Y015496D01*
X008238Y015397D01*
X008883Y015496D02*
X008883Y014905D01*
X009276Y015496D01*
X009276Y014905D01*
X009527Y015003D02*
X009626Y014905D01*
X009823Y014905D01*
X009921Y015003D01*
X009921Y015397D01*
X009823Y015496D01*
X009626Y015496D01*
X009527Y015397D01*
D12*
X002218Y012687D03*
X002228Y004708D03*
D13*
X006374Y007519D03*
X006374Y009685D03*
D14*
X004444Y010275D03*
X004444Y007126D03*
M02*
