G75*
G70*
%OFA0B0*%
%FSLAX24Y24*%
%IPPOS*%
%LPD*%
%AMOC8*
5,1,8,0,0,1.08239X$1,22.5*
%
%ADD10C,0.0120*%
D10*
X000350Y003740D02*
X000350Y013582D01*
X000353Y013723D01*
X000363Y013863D01*
X000380Y014002D01*
X000403Y014141D01*
X000433Y014278D01*
X000470Y014414D01*
X000512Y014548D01*
X000562Y014680D01*
X000617Y014809D01*
X000678Y014935D01*
X000746Y015059D01*
X000819Y015179D01*
X000898Y015295D01*
X000982Y015407D01*
X001071Y015516D01*
X001166Y015620D01*
X001265Y015719D01*
X001369Y015814D01*
X001478Y015903D01*
X001590Y015987D01*
X001706Y016066D01*
X001826Y016139D01*
X001950Y016207D01*
X002076Y016268D01*
X002205Y016323D01*
X002337Y016373D01*
X002471Y016415D01*
X002607Y016452D01*
X002744Y016482D01*
X002883Y016505D01*
X003022Y016522D01*
X003162Y016532D01*
X003303Y016535D01*
X012161Y016535D01*
X013775Y016535D01*
X013837Y016533D01*
X013898Y016527D01*
X013959Y016518D01*
X014020Y016504D01*
X014079Y016487D01*
X014137Y016466D01*
X014194Y016441D01*
X014249Y016413D01*
X014302Y016382D01*
X014353Y016347D01*
X014402Y016309D01*
X014449Y016268D01*
X014492Y016225D01*
X014533Y016178D01*
X014571Y016129D01*
X014606Y016078D01*
X014637Y016025D01*
X014665Y015970D01*
X014690Y015913D01*
X014711Y015855D01*
X014728Y015796D01*
X014742Y015735D01*
X014751Y015674D01*
X014757Y015613D01*
X014759Y015551D01*
X014759Y001771D01*
X014757Y001709D01*
X014751Y001648D01*
X014742Y001587D01*
X014728Y001526D01*
X014711Y001467D01*
X014690Y001409D01*
X014665Y001352D01*
X014637Y001297D01*
X014606Y001244D01*
X014571Y001193D01*
X014533Y001144D01*
X014492Y001097D01*
X014449Y001054D01*
X014402Y001013D01*
X014353Y000975D01*
X014302Y000940D01*
X014249Y000909D01*
X014194Y000881D01*
X014137Y000856D01*
X014079Y000835D01*
X014020Y000818D01*
X013959Y000804D01*
X013898Y000795D01*
X013837Y000789D01*
X013775Y000787D01*
X003303Y000787D01*
X003162Y000790D01*
X003022Y000800D01*
X002883Y000817D01*
X002744Y000840D01*
X002607Y000870D01*
X002471Y000907D01*
X002337Y000949D01*
X002205Y000999D01*
X002076Y001054D01*
X001950Y001115D01*
X001826Y001183D01*
X001706Y001256D01*
X001590Y001335D01*
X001478Y001419D01*
X001369Y001508D01*
X001265Y001603D01*
X001166Y001702D01*
X001071Y001806D01*
X000982Y001915D01*
X000898Y002027D01*
X000819Y002143D01*
X000746Y002264D01*
X000678Y002387D01*
X000617Y002513D01*
X000562Y002642D01*
X000512Y002774D01*
X000470Y002908D01*
X000433Y003044D01*
X000403Y003181D01*
X000380Y003320D01*
X000363Y003459D01*
X000353Y003599D01*
X000350Y003740D01*
M02*
