G75*
G70*
%OFA0B0*%
%FSLAX24Y24*%
%IPPOS*%
%LPD*%
%AMOC8*
5,1,8,0,0,1.08239X$1,22.5*
%
%ADD10C,0.0040*%
%ADD11C,0.2540*%
%ADD12C,0.0740*%
%ADD13C,0.2440*%
D10*
X003270Y001170D02*
X003270Y001831D01*
X003601Y001500D01*
X003160Y001500D01*
X003805Y001170D02*
X004245Y001170D01*
X004025Y001170D02*
X004025Y001831D01*
X004245Y001610D01*
X005099Y001500D02*
X005319Y001500D01*
X005529Y001500D02*
X005749Y001500D01*
X005953Y001500D02*
X005953Y001280D01*
X006063Y001170D01*
X006284Y001170D01*
X006394Y001280D01*
X006394Y001500D01*
X006284Y001610D01*
X006063Y001610D01*
X005953Y001500D01*
X005639Y001720D02*
X005639Y001170D01*
X005209Y001170D02*
X005209Y001720D01*
X005099Y001831D01*
X005529Y001831D02*
X005639Y001720D01*
X006598Y001500D02*
X006598Y001170D01*
X006598Y001500D02*
X006708Y001610D01*
X006928Y001610D01*
X007038Y001500D01*
X007242Y001610D02*
X007573Y001610D01*
X007683Y001500D01*
X007683Y001280D01*
X007573Y001170D01*
X007242Y001170D01*
X007038Y001170D02*
X007038Y001831D01*
X007887Y001500D02*
X007887Y001170D01*
X007887Y001500D02*
X007997Y001610D01*
X008327Y001610D01*
X008327Y001170D01*
X008531Y001390D02*
X008972Y001390D01*
X008972Y001280D02*
X008972Y001500D01*
X008862Y001610D01*
X008642Y001610D01*
X008531Y001500D01*
X008531Y001390D01*
X008642Y001170D02*
X008862Y001170D01*
X008972Y001280D01*
X009176Y001280D02*
X009176Y001390D01*
X009286Y001500D01*
X009616Y001500D01*
X009286Y001500D02*
X009176Y001610D01*
X009176Y001720D01*
X009286Y001831D01*
X009616Y001831D01*
X009616Y001170D01*
X009286Y001170D01*
X009176Y001280D01*
X004150Y014650D02*
X004040Y014650D01*
X003930Y014760D01*
X003930Y015310D01*
X004260Y015310D01*
X004370Y015200D01*
X004370Y014980D01*
X004260Y014870D01*
X003930Y014870D01*
X003725Y014870D02*
X003725Y015310D01*
X003725Y015090D02*
X003505Y015310D01*
X003395Y015310D01*
X003078Y015310D02*
X002858Y015310D01*
X002748Y015200D01*
X002748Y014870D01*
X003078Y014870D01*
X003188Y014980D01*
X003078Y015090D01*
X002748Y015090D01*
X002544Y014870D02*
X002213Y014870D01*
X002103Y014980D01*
X002103Y015200D01*
X002213Y015310D01*
X002544Y015310D01*
X002544Y014650D01*
X001899Y014870D02*
X001899Y015531D01*
X001789Y015310D02*
X001569Y015310D01*
X001459Y015200D01*
X001459Y014870D01*
X001899Y015200D02*
X001789Y015310D01*
X004574Y015200D02*
X004574Y014980D01*
X004684Y014870D01*
X004904Y014870D01*
X005014Y014980D01*
X005014Y015200D01*
X004904Y015310D01*
X004684Y015310D01*
X004574Y015200D01*
X005224Y015310D02*
X005444Y015310D01*
X005334Y015420D02*
X005334Y014980D01*
X005224Y014870D01*
X005648Y014870D02*
X005648Y015200D01*
X005758Y015310D01*
X006089Y015310D01*
X006089Y014870D01*
X006293Y014870D02*
X006293Y015200D01*
X006403Y015310D01*
X006623Y015310D01*
X006623Y015090D02*
X006293Y015090D01*
X006293Y014870D02*
X006623Y014870D01*
X006733Y014980D01*
X006623Y015090D01*
X006937Y015200D02*
X006937Y015420D01*
X007048Y015531D01*
X007378Y015531D01*
X007378Y014870D01*
X007378Y015090D02*
X007048Y015090D01*
X006937Y015200D01*
X008227Y014980D02*
X008337Y014870D01*
X008557Y014870D01*
X008667Y014980D01*
X008667Y015420D01*
X008557Y015531D01*
X008337Y015531D01*
X008227Y015420D01*
X008871Y015531D02*
X008871Y014870D01*
X009311Y015531D01*
X009311Y014870D01*
X009516Y014980D02*
X009626Y014870D01*
X009846Y014870D01*
X009956Y014980D01*
X009956Y015420D01*
X009846Y015531D01*
X009626Y015531D01*
X009516Y015420D01*
D11*
X002218Y012687D03*
X002228Y004708D03*
D12*
X006374Y007519D03*
X006374Y009685D03*
D13*
X004444Y010275D03*
X004444Y007126D03*
M02*
